<?xml version="1.0" encoding="utf-8" standalone="no"?><!DOCTYPE svg PUBLIC "-//W3C//DTD SVG 20010904//EN" "http://www.w3.org/TR/2001/REC-SVG-20010904/DTD/svg10.dtd"><svg xmlns="http://www.w3.org/2000/svg" width="725" height="519" xmlns:xlink="http://www.w3.org/1999/xlink"><source><![CDATA[Client->Proxy: Authenticate
Note right of Proxy: Generate session token
Proxy->Client: Return session token
Client->Proxy: Backend request (authenticated)
Note right of Proxy: Process request
Proxy-->Backend: Send request
Backend-->Proxy: Send response
Note right of Proxy: Process response
Proxy->Client: Send processed response
]]></source><desc>Created with Raphaël 2.1.2</desc><defs><path stroke-linecap="round" d="M5,0 0,2.5 5,5z" id="raphael-marker-block"></path><marker id="raphael-marker-endblock55-obj2159" markerHeight="5" markerWidth="5" orient="auto" refX="2.5" refY="2.5"><use xlink:href="#raphael-marker-block" transform="rotate(180 2.5 2.5) scale(1,1)" stroke-width="1.0000" fill="#000" stroke="none"></use></marker><marker id="raphael-marker-endblock55-obj2165" markerHeight="5" markerWidth="5" orient="auto" refX="2.5" refY="2.5"><use xlink:href="#raphael-marker-block" transform="rotate(180 2.5 2.5) scale(1,1)" stroke-width="1.0000" fill="#000" stroke="none"></use></marker><marker id="raphael-marker-endblock55-obj2168" markerHeight="5" markerWidth="5" orient="auto" refX="2.5" refY="2.5"><use xlink:href="#raphael-marker-block" transform="rotate(180 2.5 2.5) scale(1,1)" stroke-width="1.0000" fill="#000" stroke="none"></use></marker><marker id="raphael-marker-endblock55-obj2174" markerHeight="5" markerWidth="5" orient="auto" refX="2.5" refY="2.5"><use xlink:href="#raphael-marker-block" transform="rotate(180 2.5 2.5) scale(1,1)" stroke-width="1.0000" fill="#000" stroke="none"></use></marker><marker id="raphael-marker-endblock55-obj2177" markerHeight="5" markerWidth="5" orient="auto" refX="2.5" refY="2.5"><use xlink:href="#raphael-marker-block" transform="rotate(180 2.5 2.5) scale(1,1)" stroke-width="1.0000" fill="#000" stroke="none"></use></marker><marker id="raphael-marker-endblock55-obj2183" markerHeight="5" markerWidth="5" orient="auto" refX="2.5" refY="2.5"><use xlink:href="#raphael-marker-block" transform="rotate(180 2.5 2.5) scale(1,1)" stroke-width="1.0000" fill="#000" stroke="none"></use></marker></defs><rect x="10" y="20" width="80" height="39" rx="0" ry="0" fill="none" stroke="#000000" style="" stroke-width="2"></rect><rect x="20" y="30" width="60" height="19" rx="0" ry="0" fill="#ffffff" stroke="none" style=""></rect><text style="text-anchor: middle; font-family: Andale Mono,monospace; font-size: 16px;" x="50" y="39.5" text-anchor="middle" font-family="Andale Mono, monospace" font-size="16px" stroke="none" fill="#000000"><tspan dy="5.5">Client</tspan></text><rect x="10" y="460" width="80" height="39" rx="0" ry="0" fill="none" stroke="#000000" style="" stroke-width="2"></rect><rect x="20" y="470" width="60" height="19" rx="0" ry="0" fill="#ffffff" stroke="none" style=""></rect><text style="text-anchor: middle; font-family: Andale Mono,monospace; font-size: 16px;" x="50" y="479.5" text-anchor="middle" font-family="Andale Mono, monospace" font-size="16px" stroke="none" fill="#000000"><tspan dy="5.5">Client</tspan></text><path style="" fill="none" stroke="#000000" d="M50,59L50,460" stroke-width="2"></path><rect x="345" y="20" width="70" height="39" rx="0" ry="0" fill="none" stroke="#000000" style="" stroke-width="2"></rect><rect x="355" y="30" width="50" height="19" rx="0" ry="0" fill="#ffffff" stroke="none" style=""></rect><text style="text-anchor: middle; font-family: Andale Mono,monospace; font-size: 16px;" x="380" y="39.5" text-anchor="middle" font-family="Andale Mono, monospace" font-size="16px" stroke="none" fill="#000000"><tspan dy="5.5">Proxy</tspan></text><rect x="345" y="460" width="70" height="39" rx="0" ry="0" fill="none" stroke="#000000" style="" stroke-width="2"></rect><rect x="355" y="470" width="50" height="19" rx="0" ry="0" fill="#ffffff" stroke="none" style=""></rect><text style="text-anchor: middle; font-family: Andale Mono,monospace; font-size: 16px;" x="380" y="479.5" text-anchor="middle" font-family="Andale Mono, monospace" font-size="16px" stroke="none" fill="#000000"><tspan dy="5.5">Proxy</tspan></text><path style="" fill="none" stroke="#000000" d="M380,59L380,460" stroke-width="2"></path><rect x="605" y="20" width="90" height="39" rx="0" ry="0" fill="none" stroke="#000000" style="" stroke-width="2"></rect><rect x="615" y="30" width="70" height="19" rx="0" ry="0" fill="#ffffff" stroke="none" style=""></rect><text style="text-anchor: middle; font-family: Andale Mono,monospace; font-size: 16px;" x="650" y="39.5" text-anchor="middle" font-family="Andale Mono, monospace" font-size="16px" stroke="none" fill="#000000"><tspan dy="5.5">Backend</tspan></text><rect x="605" y="460" width="90" height="39" rx="0" ry="0" fill="none" stroke="#000000" style="" stroke-width="2"></rect><rect x="615" y="470" width="70" height="19" rx="0" ry="0" fill="#ffffff" stroke="none" style=""></rect><text style="text-anchor: middle; font-family: Andale Mono,monospace; font-size: 16px;" x="650" y="479.5" text-anchor="middle" font-family="Andale Mono, monospace" font-size="16px" stroke="none" fill="#000000"><tspan dy="5.5">Backend</tspan></text><path style="" fill="none" stroke="#000000" d="M650,59L650,460" stroke-width="2"></path><rect x="155" y="74.5" width="120" height="19" rx="0" ry="0" fill="#ffffff" stroke="none" style=""></rect><text style="text-anchor: middle; font-family: Andale Mono,monospace; font-size: 16px;" x="215" y="84" text-anchor="middle" font-family="Andale Mono, monospace" font-size="16px" stroke="none" fill="#000000"><tspan dy="5.5">Authenticate</tspan></text><path style="" fill="none" stroke="#000000" d="M50,98C50,98,333.65445509552956,98,374.9976459383106,98" stroke-width="2" marker-end="url(#raphael-marker-endblock55-obj2159)" stroke-dasharray="0"></path><rect x="400" y="118" width="230" height="29" rx="0" ry="0" fill="none" stroke="#000000" style="" stroke-width="2"></rect><rect x="405" y="123" width="220" height="19" rx="0" ry="0" fill="#ffffff" stroke="none" style=""></rect><text style="text-anchor: middle; font-family: Andale Mono,monospace; font-size: 16px;" x="515" y="132.5" text-anchor="middle" font-family="Andale Mono, monospace" font-size="16px" stroke="none" fill="#000000"><tspan dy="5.5">Generate session token</tspan></text><rect x="115" y="162.5" width="200" height="19" rx="0" ry="0" fill="#ffffff" stroke="none" style=""></rect><text style="text-anchor: middle; font-family: Andale Mono,monospace; font-size: 16px;" x="215" y="172" text-anchor="middle" font-family="Andale Mono, monospace" font-size="16px" stroke="none" fill="#000000"><tspan dy="5.5">Return session token</tspan></text><path style="" fill="none" stroke="#000000" d="M380,186C380,186,96.34554490447044,186,55.0023540616894,186" stroke-width="2" marker-end="url(#raphael-marker-endblock55-obj2165)" stroke-dasharray="0"></path><rect x="60" y="201.5" width="310" height="19" rx="0" ry="0" fill="#ffffff" stroke="none" style=""></rect><text style="text-anchor: middle; font-family: Andale Mono,monospace; font-size: 16px;" x="215" y="211" text-anchor="middle" font-family="Andale Mono, monospace" font-size="16px" stroke="none" fill="#000000"><tspan dy="5.5">Backend request (authenticated)</tspan></text><path style="" fill="none" stroke="#000000" d="M50,225C50,225,333.65445509552956,225,374.9976459383106,225" stroke-width="2" marker-end="url(#raphael-marker-endblock55-obj2168)" stroke-dasharray="0"></path><rect x="400" y="245" width="160" height="29" rx="0" ry="0" fill="none" stroke="#000000" style="" stroke-width="2"></rect><rect x="405" y="250" width="150" height="19" rx="0" ry="0" fill="#ffffff" stroke="none" style=""></rect><text style="text-anchor: middle; font-family: Andale Mono,monospace; font-size: 16px;" x="480" y="259.5" text-anchor="middle" font-family="Andale Mono, monospace" font-size="16px" stroke="none" fill="#000000"><tspan dy="5.5">Process request</tspan></text><rect x="455" y="289.5" width="120" height="19" rx="0" ry="0" fill="#ffffff" stroke="none" style=""></rect><text style="text-anchor: middle; font-family: Andale Mono,monospace; font-size: 16px;" x="515" y="299" text-anchor="middle" font-family="Andale Mono, monospace" font-size="16px" stroke="none" fill="#000000"><tspan dy="5.5">Send request</tspan></text><path style="" fill="none" stroke="#000000" d="M380,313C380,313,608.1254976987839,313,644.9953901491244,313" stroke-width="2" marker-end="url(#raphael-marker-endblock55-obj2174)" stroke-dasharray="6,2"></path><rect x="450" y="328.5" width="130" height="19" rx="0" ry="0" fill="#ffffff" stroke="none" style=""></rect><text style="text-anchor: middle; font-family: Andale Mono,monospace; font-size: 16px;" x="515" y="338" text-anchor="middle" font-family="Andale Mono, monospace" font-size="16px" stroke="none" fill="#000000"><tspan dy="5.5">Send response</tspan></text><path style="" fill="none" stroke="#000000" d="M650,352C650,352,421.8745023012161,352,385.00460985087557,352" stroke-width="2" marker-end="url(#raphael-marker-endblock55-obj2177)" stroke-dasharray="6,2"></path><rect x="400" y="372" width="170" height="29" rx="0" ry="0" fill="none" stroke="#000000" style="" stroke-width="2"></rect><rect x="405" y="377" width="160" height="19" rx="0" ry="0" fill="#ffffff" stroke="none" style=""></rect><text style="text-anchor: middle; font-family: Andale Mono,monospace; font-size: 16px;" x="485" y="386.5" text-anchor="middle" font-family="Andale Mono, monospace" font-size="16px" stroke="none" fill="#000000"><tspan dy="5.5">Process response</tspan></text><rect x="100" y="416.5" width="230" height="19" rx="0" ry="0" fill="#ffffff" stroke="none" style=""></rect><text style="text-anchor: middle; font-family: Andale Mono,monospace; font-size: 16px;" x="215" y="426" text-anchor="middle" font-family="Andale Mono, monospace" font-size="16px" stroke="none" fill="#000000"><tspan dy="5.5">Send processed response</tspan></text><path style="" fill="none" stroke="#000000" d="M380,440C380,440,96.34554490447044,440,55.0023540616894,440" stroke-width="2" marker-end="url(#raphael-marker-endblock55-obj2183)" stroke-dasharray="0"></path></svg>