<?xml version="1.0" encoding="utf-8" standalone="no"?><!DOCTYPE svg PUBLIC "-//W3C//DTD SVG 20010904//EN" "http://www.w3.org/TR/2001/REC-SVG-20010904/DTD/svg10.dtd"><svg xmlns="http://www.w3.org/2000/svg" width="645" height="519" xmlns:xlink="http://www.w3.org/1999/xlink"><source><![CDATA[Client->Proxy: Authenticate
Note right of Proxy: Generate session token
Proxy->Client: Return session token
Client->Proxy: Backend request
Note right of Proxy: Process request
Proxy-->Backend: Send request
Backend-->Proxy: Send response
Note right of Proxy: Process response
Proxy->Client: Send processed response
]]></source><desc>Created with Raphaël 2.1.2</desc><defs><path stroke-linecap="round" d="M5,0 0,2.5 5,5z" id="raphael-marker-block"></path><marker id="raphael-marker-endblock55-obj1499" markerHeight="5" markerWidth="5" orient="auto" refX="2.5" refY="2.5"><use xlink:href="#raphael-marker-block" transform="rotate(180 2.5 2.5) scale(1,1)" stroke-width="1.0000" fill="#000" stroke="none"></use></marker><marker id="raphael-marker-endblock55-obj1505" markerHeight="5" markerWidth="5" orient="auto" refX="2.5" refY="2.5"><use xlink:href="#raphael-marker-block" transform="rotate(180 2.5 2.5) scale(1,1)" stroke-width="1.0000" fill="#000" stroke="none"></use></marker><marker id="raphael-marker-endblock55-obj1508" markerHeight="5" markerWidth="5" orient="auto" refX="2.5" refY="2.5"><use xlink:href="#raphael-marker-block" transform="rotate(180 2.5 2.5) scale(1,1)" stroke-width="1.0000" fill="#000" stroke="none"></use></marker><marker id="raphael-marker-endblock55-obj1514" markerHeight="5" markerWidth="5" orient="auto" refX="2.5" refY="2.5"><use xlink:href="#raphael-marker-block" transform="rotate(180 2.5 2.5) scale(1,1)" stroke-width="1.0000" fill="#000" stroke="none"></use></marker><marker id="raphael-marker-endblock55-obj1517" markerHeight="5" markerWidth="5" orient="auto" refX="2.5" refY="2.5"><use xlink:href="#raphael-marker-block" transform="rotate(180 2.5 2.5) scale(1,1)" stroke-width="1.0000" fill="#000" stroke="none"></use></marker><marker id="raphael-marker-endblock55-obj1523" markerHeight="5" markerWidth="5" orient="auto" refX="2.5" refY="2.5"><use xlink:href="#raphael-marker-block" transform="rotate(180 2.5 2.5) scale(1,1)" stroke-width="1.0000" fill="#000" stroke="none"></use></marker></defs><rect x="10" y="20" width="80" height="39" rx="0" ry="0" fill="none" stroke="#000000" style="" stroke-width="2"></rect><rect x="20" y="30" width="60" height="19" rx="0" ry="0" fill="#ffffff" stroke="none" style=""></rect><text style="text-anchor: middle; font-family: Andale Mono,monospace; font-size: 16px;" x="50" y="39.5" text-anchor="middle" font-family="Andale Mono, monospace" font-size="16px" stroke="none" fill="#000000"><tspan dy="5.5">Client</tspan></text><rect x="10" y="460" width="80" height="39" rx="0" ry="0" fill="none" stroke="#000000" style="" stroke-width="2"></rect><rect x="20" y="470" width="60" height="19" rx="0" ry="0" fill="#ffffff" stroke="none" style=""></rect><text style="text-anchor: middle; font-family: Andale Mono,monospace; font-size: 16px;" x="50" y="479.5" text-anchor="middle" font-family="Andale Mono, monospace" font-size="16px" stroke="none" fill="#000000"><tspan dy="5.5">Client</tspan></text><path style="" fill="none" stroke="#000000" d="M50,59L50,460" stroke-width="2"></path><rect x="265" y="20" width="70" height="39" rx="0" ry="0" fill="none" stroke="#000000" style="" stroke-width="2"></rect><rect x="275" y="30" width="50" height="19" rx="0" ry="0" fill="#ffffff" stroke="none" style=""></rect><text style="text-anchor: middle; font-family: Andale Mono,monospace; font-size: 16px;" x="300" y="39.5" text-anchor="middle" font-family="Andale Mono, monospace" font-size="16px" stroke="none" fill="#000000"><tspan dy="5.5">Proxy</tspan></text><rect x="265" y="460" width="70" height="39" rx="0" ry="0" fill="none" stroke="#000000" style="" stroke-width="2"></rect><rect x="275" y="470" width="50" height="19" rx="0" ry="0" fill="#ffffff" stroke="none" style=""></rect><text style="text-anchor: middle; font-family: Andale Mono,monospace; font-size: 16px;" x="300" y="479.5" text-anchor="middle" font-family="Andale Mono, monospace" font-size="16px" stroke="none" fill="#000000"><tspan dy="5.5">Proxy</tspan></text><path style="" fill="none" stroke="#000000" d="M300,59L300,460" stroke-width="2"></path><rect x="525" y="20" width="90" height="39" rx="0" ry="0" fill="none" stroke="#000000" style="" stroke-width="2"></rect><rect x="535" y="30" width="70" height="19" rx="0" ry="0" fill="#ffffff" stroke="none" style=""></rect><text style="text-anchor: middle; font-family: Andale Mono,monospace; font-size: 16px;" x="570" y="39.5" text-anchor="middle" font-family="Andale Mono, monospace" font-size="16px" stroke="none" fill="#000000"><tspan dy="5.5">Backend</tspan></text><rect x="525" y="460" width="90" height="39" rx="0" ry="0" fill="none" stroke="#000000" style="" stroke-width="2"></rect><rect x="535" y="470" width="70" height="19" rx="0" ry="0" fill="#ffffff" stroke="none" style=""></rect><text style="text-anchor: middle; font-family: Andale Mono,monospace; font-size: 16px;" x="570" y="479.5" text-anchor="middle" font-family="Andale Mono, monospace" font-size="16px" stroke="none" fill="#000000"><tspan dy="5.5">Backend</tspan></text><path style="" fill="none" stroke="#000000" d="M570,59L570,460" stroke-width="2"></path><rect x="115" y="74.5" width="120" height="19" rx="0" ry="0" fill="#ffffff" stroke="none" style=""></rect><text style="text-anchor: middle; font-family: Andale Mono,monospace; font-size: 16px;" x="175" y="84" text-anchor="middle" font-family="Andale Mono, monospace" font-size="16px" stroke="none" fill="#000000"><tspan dy="5.5">Authenticate</tspan></text><path style="" fill="none" stroke="#000000" d="M50,98C50,98,259.77115631103516,98,295.00615522265434,98" stroke-width="2" marker-end="url(#raphael-marker-endblock55-obj1499)" stroke-dasharray="0"></path><rect x="320" y="118" width="230" height="29" rx="0" ry="0" fill="none" stroke="#000000" style="" stroke-width="2"></rect><rect x="325" y="123" width="220" height="19" rx="0" ry="0" fill="#ffffff" stroke="none" style=""></rect><text style="text-anchor: middle; font-family: Andale Mono,monospace; font-size: 16px;" x="435" y="132.5" text-anchor="middle" font-family="Andale Mono, monospace" font-size="16px" stroke="none" fill="#000000"><tspan dy="5.5">Generate session token</tspan></text><rect x="75" y="162.5" width="200" height="19" rx="0" ry="0" fill="#ffffff" stroke="none" style=""></rect><text style="text-anchor: middle; font-family: Andale Mono,monospace; font-size: 16px;" x="175" y="172" text-anchor="middle" font-family="Andale Mono, monospace" font-size="16px" stroke="none" fill="#000000"><tspan dy="5.5">Return session token</tspan></text><path style="" fill="none" stroke="#000000" d="M300,186C300,186,90.22884368896484,186,54.99384477734566,186" stroke-width="2" marker-end="url(#raphael-marker-endblock55-obj1505)" stroke-dasharray="0"></path><rect x="100" y="201.5" width="150" height="19" rx="0" ry="0" fill="#ffffff" stroke="none" style=""></rect><text style="text-anchor: middle; font-family: Andale Mono,monospace; font-size: 16px;" x="175" y="211" text-anchor="middle" font-family="Andale Mono, monospace" font-size="16px" stroke="none" fill="#000000"><tspan dy="5.5">Backend request</tspan></text><path style="" fill="none" stroke="#000000" d="M50,225C50,225,259.77115631103516,225,295.00615522265434,225" stroke-width="2" marker-end="url(#raphael-marker-endblock55-obj1508)" stroke-dasharray="0"></path><rect x="320" y="245" width="160" height="29" rx="0" ry="0" fill="none" stroke="#000000" style="" stroke-width="2"></rect><rect x="325" y="250" width="150" height="19" rx="0" ry="0" fill="#ffffff" stroke="none" style=""></rect><text style="text-anchor: middle; font-family: Andale Mono,monospace; font-size: 16px;" x="400" y="259.5" text-anchor="middle" font-family="Andale Mono, monospace" font-size="16px" stroke="none" fill="#000000"><tspan dy="5.5">Process request</tspan></text><rect x="375" y="289.5" width="120" height="19" rx="0" ry="0" fill="#ffffff" stroke="none" style=""></rect><text style="text-anchor: middle; font-family: Andale Mono,monospace; font-size: 16px;" x="435" y="299" text-anchor="middle" font-family="Andale Mono, monospace" font-size="16px" stroke="none" fill="#000000"><tspan dy="5.5">Send request</tspan></text><path style="" fill="none" stroke="#000000" d="M300,313C300,313,528.1254976987839,313,564.9953901491244,313" stroke-width="2" marker-end="url(#raphael-marker-endblock55-obj1514)" stroke-dasharray="6,2"></path><rect x="370" y="328.5" width="130" height="19" rx="0" ry="0" fill="#ffffff" stroke="none" style=""></rect><text style="text-anchor: middle; font-family: Andale Mono,monospace; font-size: 16px;" x="435" y="338" text-anchor="middle" font-family="Andale Mono, monospace" font-size="16px" stroke="none" fill="#000000"><tspan dy="5.5">Send response</tspan></text><path style="" fill="none" stroke="#000000" d="M570,352C570,352,341.8745023012161,352,305.00460985087557,352" stroke-width="2" marker-end="url(#raphael-marker-endblock55-obj1517)" stroke-dasharray="6,2"></path><rect x="320" y="372" width="170" height="29" rx="0" ry="0" fill="none" stroke="#000000" style="" stroke-width="2"></rect><rect x="325" y="377" width="160" height="19" rx="0" ry="0" fill="#ffffff" stroke="none" style=""></rect><text style="text-anchor: middle; font-family: Andale Mono,monospace; font-size: 16px;" x="405" y="386.5" text-anchor="middle" font-family="Andale Mono, monospace" font-size="16px" stroke="none" fill="#000000"><tspan dy="5.5">Process response</tspan></text><rect x="60" y="416.5" width="230" height="19" rx="0" ry="0" fill="#ffffff" stroke="none" style=""></rect><text style="text-anchor: middle; font-family: Andale Mono,monospace; font-size: 16px;" x="175" y="426" text-anchor="middle" font-family="Andale Mono, monospace" font-size="16px" stroke="none" fill="#000000"><tspan dy="5.5">Send processed response</tspan></text><path style="" fill="none" stroke="#000000" d="M300,440C300,440,90.22884368896484,440,54.99384477734566,440" stroke-width="2" marker-end="url(#raphael-marker-endblock55-obj1523)" stroke-dasharray="0"></path></svg>