<?xml version="1.0" encoding="UTF-8" standalone="no"?>
<!-- Created with Inkscape (http://www.inkscape.org/) -->

<svg
   xmlns:dc="http://purl.org/dc/elements/1.1/"
   xmlns:cc="http://creativecommons.org/ns#"
   xmlns:rdf="http://www.w3.org/1999/02/22-rdf-syntax-ns#"
   xmlns:svg="http://www.w3.org/2000/svg"
   xmlns="http://www.w3.org/2000/svg"
   xmlns:sodipodi="http://sodipodi.sourceforge.net/DTD/sodipodi-0.dtd"
   xmlns:inkscape="http://www.inkscape.org/namespaces/inkscape"
   width="85mm"
   height="55mm"
   viewBox="0 0 301.1811 194.88189"
   id="svg2"
   version="1.1"
   inkscape:version="0.91 r13725"
   sodipodi:docname="Feedback-CommentListUI.svg">
  <defs
     id="defs4">
    <marker
       inkscape:stockid="Arrow1Lstart"
       orient="auto"
       refY="0.0"
       refX="0.0"
       id="Arrow1Lstart"
       style="overflow:visible"
       inkscape:isstock="true">
      <path
         id="path4396"
         d="M 0.0,0.0 L 5.0,-5.0 L -12.5,0.0 L 5.0,5.0 L 0.0,0.0 z "
         style="fill-rule:evenodd;stroke:#000000;stroke-width:1pt;stroke-opacity:1;fill:#000000;fill-opacity:1"
         transform="scale(0.8) translate(12.5,0)" />
    </marker>
    <marker
       inkscape:stockid="Arrow2Lend"
       orient="auto"
       refY="0.0"
       refX="0.0"
       id="Arrow2Lend"
       style="overflow:visible;"
       inkscape:isstock="true">
      <path
         id="path4417"
         style="fill-rule:evenodd;stroke-width:0.625;stroke-linejoin:round;stroke:#000000;stroke-opacity:1;fill:#000000;fill-opacity:1"
         d="M 8.7185878,4.0337352 L -2.2072895,0.016013256 L 8.7185884,-4.0017078 C 6.9730900,-1.6296469 6.9831476,1.6157441 8.7185878,4.0337352 z "
         transform="scale(1.1) rotate(180) translate(1,0)" />
    </marker>
    <marker
       inkscape:stockid="Arrow2Lend"
       orient="auto"
       refY="0"
       refX="0"
       id="Arrow2Lend-0"
       style="overflow:visible"
       inkscape:isstock="true">
      <path
         inkscape:connector-curvature="0"
         id="path4417-7"
         style="fill:#000000;fill-opacity:1;fill-rule:evenodd;stroke:#000000;stroke-width:0.625;stroke-linejoin:round;stroke-opacity:1"
         d="M 8.7185878,4.0337352 -2.2072895,0.01601326 8.7185884,-4.0017078 c -1.7454984,2.3720609 -1.7354408,5.6174519 -6e-7,8.035443 z"
         transform="matrix(-1.1,0,0,-1.1,-1.1,0)" />
    </marker>
    <marker
       inkscape:stockid="Arrow2Lend"
       orient="auto"
       refY="0"
       refX="0"
       id="Arrow2Lend-4"
       style="overflow:visible"
       inkscape:isstock="true">
      <path
         inkscape:connector-curvature="0"
         id="path4417-9"
         style="fill:#000000;fill-opacity:1;fill-rule:evenodd;stroke:#000000;stroke-width:0.625;stroke-linejoin:round;stroke-opacity:1"
         d="M 8.7185878,4.0337352 -2.2072895,0.01601326 8.7185884,-4.0017078 c -1.7454984,2.3720609 -1.7354408,5.6174519 -6e-7,8.035443 z"
         transform="matrix(-1.1,0,0,-1.1,-1.1,0)" />
    </marker>
    <marker
       inkscape:stockid="Arrow2Lend"
       orient="auto"
       refY="0"
       refX="0"
       id="Arrow2Lend-1"
       style="overflow:visible"
       inkscape:isstock="true">
      <path
         inkscape:connector-curvature="0"
         id="path4417-0"
         style="fill:#000000;fill-opacity:1;fill-rule:evenodd;stroke:#000000;stroke-width:0.625;stroke-linejoin:round;stroke-opacity:1"
         d="M 8.7185878,4.0337352 -2.2072895,0.01601326 8.7185884,-4.0017078 c -1.7454984,2.3720609 -1.7354408,5.6174519 -6e-7,8.035443 z"
         transform="matrix(-1.1,0,0,-1.1,-1.1,0)" />
    </marker>
    <marker
       inkscape:stockid="Arrow2Lend"
       orient="auto"
       refY="0"
       refX="0"
       id="Arrow2Lend-0-1"
       style="overflow:visible"
       inkscape:isstock="true">
      <path
         inkscape:connector-curvature="0"
         id="path4417-7-4"
         style="fill:#000000;fill-opacity:1;fill-rule:evenodd;stroke:#000000;stroke-width:0.625;stroke-linejoin:round;stroke-opacity:1"
         d="M 8.7185878,4.0337352 -2.2072895,0.01601326 8.7185884,-4.0017078 c -1.7454984,2.3720609 -1.7354408,5.6174519 -6e-7,8.035443 z"
         transform="matrix(-1.1,0,0,-1.1,-1.1,0)" />
    </marker>
  </defs>
  <sodipodi:namedview
     id="base"
     pagecolor="#ffffff"
     bordercolor="#666666"
     borderopacity="1.0"
     inkscape:pageopacity="0.0"
     inkscape:pageshadow="2"
     inkscape:zoom="2"
     inkscape:cx="85.453857"
     inkscape:cy="43.087173"
     inkscape:document-units="px"
     inkscape:current-layer="layer1"
     showgrid="false"
     inkscape:window-width="1920"
     inkscape:window-height="1052"
     inkscape:window-x="0"
     inkscape:window-y="0"
     inkscape:window-maximized="1"
     units="mm" />
  <metadata
     id="metadata7">
    <rdf:RDF>
      <cc:Work
         rdf:about="">
        <dc:format>image/svg+xml</dc:format>
        <dc:type
           rdf:resource="http://purl.org/dc/dcmitype/StillImage" />
        <dc:title></dc:title>
      </cc:Work>
    </rdf:RDF>
  </metadata>
  <g
     inkscape:label="Layer 1"
     inkscape:groupmode="layer"
     id="layer1"
     transform="translate(0,-857.48031)">
    <text
       xml:space="preserve"
       style="font-style:normal;font-weight:normal;font-size:24.22639656px;line-height:125%;font-family:sans-serif;letter-spacing:0px;word-spacing:0px;fill:#000000;fill-opacity:1;stroke:none;stroke-width:1px;stroke-linecap:butt;stroke-linejoin:miter;stroke-opacity:1"
       x="19.997107"
       y="908.25104"
       id="text3357"
       sodipodi:linespacing="125%"><tspan
         sodipodi:role="line"
         id="tspan3359"
         x="19.997107"
         y="908.25104">Comments</tspan></text>
    <g
       id="g4178"
       transform="matrix(0.60565989,0,0,0.60565989,-80.242781,676.05761)">
      <rect
         ry="3.4843214"
         y="401.66534"
         x="168.11847"
         height="114.98258"
         width="432.05576"
         id="rect3361"
         style="fill:none;stroke:#000000;stroke-opacity:1" />
      <rect
         ry="1.0431888"
         y="481.93625"
         x="168.14977"
         height="34.42522"
         width="431.63779"
         id="rect3361-2"
         style="fill:#000000;fill-opacity:0.11180127;stroke:none;stroke-width:0.54690528;stroke-opacity:1" />
    </g>
    <flowRoot
       xml:space="preserve"
       id="flowRoot4182"
       style="font-style:normal;font-weight:normal;font-size:10.59904766px;line-height:125%;font-family:sans-serif;letter-spacing:0px;word-spacing:0px;fill:#000000;fill-opacity:1;stroke:none;stroke-width:1px;stroke-linecap:butt;stroke-linejoin:miter;stroke-opacity:1"><flowRegion
         id="flowRegion4184"><rect
           id="rect4186"
           width="251.43854"
           height="37.678474"
           x="26.169827"
           y="926.57397"
           style="font-size:10.59904766px" /></flowRegion><flowPara
         id="flowPara4188">Hide head under blanket so no one can see instantly break out into full speed gallop. across the house for no reason behind the couch ears back wide eyed poop in the plant pot but hack up furballs.</flowPara></flowRoot>    <g
       id="g4212"
       transform="matrix(0.60565989,0,0,0.60565989,-63.558935,675.40224)">
      <text
         sodipodi:linespacing="125%"
         id="text4190"
         y="506.01749"
         x="174.92885"
         style="font-style:normal;font-weight:normal;font-size:17.5px;line-height:125%;font-family:sans-serif;letter-spacing:0px;word-spacing:0px;fill:#000000;fill-opacity:1;stroke:none;stroke-width:1px;stroke-linecap:butt;stroke-linejoin:miter;stroke-opacity:1"
         xml:space="preserve"><tspan
           y="506.01749"
           x="174.92885"
           id="tspan4192"
           sodipodi:role="line">Mr. Kitty</tspan></text>
      <text
         sodipodi:linespacing="125%"
         id="text4190-4"
         y="505.49695"
         x="250.97168"
         style="font-style:normal;font-weight:normal;font-size:17.5px;line-height:125%;font-family:sans-serif;letter-spacing:0px;word-spacing:0px;fill:#000000;fill-opacity:1;stroke:none;stroke-width:1px;stroke-linecap:butt;stroke-linejoin:miter;stroke-opacity:1"
         xml:space="preserve"><tspan
           style="fill:#000000;fill-opacity:0.39130435"
           y="505.49695"
           x="250.97168"
           id="tspan4192-9"
           sodipodi:role="line">commented 3 days ago</tspan></text>
    </g>
    <g
       id="g4219"
       transform="matrix(0.00703298,0,0,0.00703298,23.576167,971.85029)">
      <path
         id="path4221"
         d="m 1070.4758,353.9878 c 39.1742,13.5752 153.7207,21.8121 270.6271,21.6028 101.5887,-0.1816 200.0065,-7.0208 244.9529,-22.5787 44.6464,-35.4012 88.0597,-74.2458 129.7889,-111.5712 55.6509,-49.7876 95.9672,-88.2998 157.3905,-127.0982 134.1483,-84.6778 215.9999,-70.9686 265.1705,-5.4276 43.6685,58.2954 39.1448,158.8928 22.9094,255.3556 -3.3682,19.8572 -21.6768,119.7326 -50.6743,216.0753 -17.2727,57.5289 -36.7698,122.4387 -29.6887,152.8941 3.0061,12.7025 8.583,26.9088 14.8066,42.7375 9.3496,23.7363 19.7971,50.2679 28.9529,86.451 l 0.1201,0 c 0.7361,3.0063 1.3376,6.0434 1.7285,9.0497 5.4863,27.78 9.6809,60.9415 11.6343,97.4402 0.3464,6.6884 0.6172,13.4844 0.8577,20.3528 30.2749,-0.8405 61.3923,-0.3602 93.2761,1.7441 51.6055,3.4434 104.926,11.0338 159.5532,24.0518 39.9268,9.5453 76.0637,16.0397 98.6733,56.5529 11.9648,21.495 15.8132,47.3971 8.5984,72.7112 -7.1855,25.2386 -24.1719,45.3066 -45.6685,57.3488 -1.1436,0.5864 -2.2551,1.2021 -3.3677,1.7733 1.2622,2.255 2.4058,4.5702 3.4878,6.8854 10.1611,22.1876 11.845,48.2837 2.646,73.0266 -9.1697,24.7137 -27.5999,43.3842 -49.8477,53.5759 -11.4553,5.2614 -23.9316,8.2368 -36.7695,8.6278 15.9644,10.0872 28.231,24.5029 35.8076,41.0382 22.1277,48.2545 0.9021,104.6104 -47.2017,126.6333 -22.1877,10.1318 -48.3298,11.8158 -72.9973,2.6016 l -0.1062,0.3 c -2.1335,-0.7974 -4.1777,-1.6686 -6.1482,-2.5706 -49.9077,-18.264 -103.031,-31.673 -156.5469,-41.64 -42.5713,-7.8921 -85.9844,-13.6199 -128.6467,-17.8284 -6.5836,7.3502 -13.3798,14.5065 -20.3837,21.3457 -76.6964,75.3125 -156.6685,115.6595 -229.5443,133.3231 -104.3409,25.2987 -196.9692,3.382 -249.4938,-30.8925 l -0.2694,0.1509 c -1.0529,-0.722 -2.0596,-1.4131 -3.0663,-2.1351 l -8.7203,-5.7124 c -42.9623,-28.2156 -84.1959,-55.2429 -100.7759,-46.5397 -10.0117,5.2168 -22.5033,13.4244 -36.214,22.4125 -63.3767,41.6847 -146.4751,96.2227 -287.5919,93.5165 -74.1011,-1.3977 -163.1613,-18.5487 -250.4097,-60.4288 -60.2796,-28.9238 -119.9281,-69.6603 -173.5101,-125.2203 -43.5641,4.2393 -87.8426,10.0718 -131.0081,18.0839 -64.9099,12.0714 -118.9953,31.8839 -175.2619,47.8481 -20.2634,5.7124 -41.6693,1.8488 -60.2119,-6.6744 -48.3899,-22.0676 -69.1338,-78.7098 -47.2016,-126.5734 7.5688,-16.5353 19.8649,-30.951 35.8368,-41.0382 -12.8225,-0.391 -25.3447,-3.3665 -36.822,-8.6278 -22.2323,-10.1626 -40.6395,-28.8622 -49.8323,-53.5759 -9.1774,-24.7275 -7.5011,-50.839 2.6384,-73.0266 1.0975,-2.3152 2.2474,-4.6304 3.5175,-6.8854 -1.1346,-0.5712 -2.2399,-1.1869 -3.382,-1.7733 -21.5119,-12.0267 -38.4613,-32.1101 -45.6546,-57.3488 l -0.0739,0.045 c -0.9929,-3.562 -1.744,-7.1548 -2.2551,-10.7183 -3.6159,-21.7814 0.6234,-43.5935 10.9214,-62.0376 12.0097,-21.5427 32.0778,-38.469 57.3472,-45.6683 64.2343,-18.4611 126.5887,-29.1039 186.4927,-33.9435 31.0574,-2.5261 61.3849,-3.4881 90.8781,-3.1572 10.1318,-74.4998 33.183,-138.5384 51.441,-189.2573 1.9163,-5.3815 3.7419,-10.4335 10.0715,-29.0284 24.4197,-71.689 11.7252,-153.9162 -0.9697,-236.3681 -6.1034,-39.4157 -12.1914,-78.89 -15.1685,-122.334 -1.3669,-19.7971 -2.5029,-43.0978 -3.3372,-70.336 -0.7065,-22.4586 -1.0898,-46.6305 -1.0067,-72.5172 0.1508,-60.6706 11.845,-106.2189 31.4559,-139.0187 23.8332,-40.0022 57.5134,-62.0083 97.0631,-69.631 78.2065,-15.1376 156.1266,34.0035 210.0935,84.9641 82.1369,77.5061 123.3029,136.7636 221.0894,208.6635 z"
         inkscape:connector-curvature="0"
         style="fill:#6e6f71" />
      <path
         id="path4223"
         d="m 1008.1658,338.4145 c 39.1371,13.5752 153.7068,21.8121 270.6287,21.6012 101.5886,-0.1801 200.0048,-7.0039 244.9529,-22.5787 44.6448,-35.4012 88.0596,-74.2751 129.8046,-111.6004 55.649,-49.7722 95.9653,-88.2998 157.3578,-127.0828 134.1792,-84.6932 216.0154,-70.9378 265.141,-5.4415 43.7446,58.28 39.1602,158.8913 22.9543,255.354 -3.3972,19.8587 -21.6458,119.7634 -50.6282,216.1215 -17.288,57.498 -36.845,122.4233 -29.7795,152.8633 3.0217,12.7178 8.6294,26.938 14.8529,42.7222 9.3497,23.7208 19.8263,50.2833 28.9222,86.4818 l 0.1045,-0.0308 c 0.8113,3.037 1.3823,6.0741 1.7441,9.0958 5.4861,27.7646 9.6653,60.9261 11.665,97.4248 0.3601,6.7037 0.6311,13.4382 0.8264,20.3236 30.291,-0.842 61.4219,-0.3156 93.3057,1.7733 51.6365,3.3973 104.9414,11.0184 159.5686,24.0518 39.896,9.5299 76.0637,16.0397 98.6426,56.5515 11.9958,21.4673 15.7839,47.3524 8.5986,72.6973 -7.1548,25.254 -24.1411,45.3374 -45.6377,57.3641 -1.1423,0.6003 -2.2551,1.2021 -3.3972,1.7733 1.293,2.255 2.4043,4.5394 3.5173,6.8853 10.1316,22.1877 11.8157,48.2838 2.646,73.0267 -9.2004,24.7137 -27.5999,43.3979 -49.8477,53.5759 -11.4541,5.2614 -23.9609,8.2368 -36.7852,8.6278 15.9658,10.0718 28.2466,24.4874 35.823,41.0382 22.083,48.2837 0.9021,104.595 -47.2014,126.6025 -22.1875,10.1626 -48.3147,11.8466 -73.0422,2.6307 l -0.091,0.2863 c -2.0889,-0.7666 -4.1331,-1.6532 -6.1323,-2.5861 -49.908,-18.2039 -103.062,-31.6575 -156.5933,-41.6093 -42.496,-7.892 -85.9847,-13.649 -128.6161,-17.8284 -6.5543,7.3657 -13.3489,14.4604 -20.3251,21.3457 -76.724,75.2972 -156.6962,115.6597 -229.5736,133.3372 -104.3256,25.2848 -196.9539,3.3372 -249.5231,-30.9357 l -0.2555,0.1339 c -1.0222,-0.6465 -2.0597,-1.3669 -3.0664,-2.0889 l -8.734,-5.7416 c -42.9778,-28.1864 -84.1805,-55.2291 -100.7621,-46.5566 -10.0256,5.2476 -22.5033,13.4844 -36.197,22.4432 -63.3921,41.6554 -146.4906,96.2688 -287.5996,93.5626 -74.1104,-1.4592 -163.1475,-18.5811 -250.4252,-60.4612 -60.2796,-28.9222 -119.951,-69.6602 -173.5192,-125.1895 -43.5413,4.21 -87.8104,10.0117 -130.9836,18.0546 -64.933,12.0852 -118.9968,31.9131 -175.2711,47.8174 -20.2851,5.7432 -41.6614,1.864 -60.2042,-6.6145 -48.3745,-22.0968 -69.1338,-78.739 -47.2093,-126.6025 7.5688,-16.5508 19.851,-30.9664 35.8368,-41.0382 -12.8148,-0.391 -25.3371,-3.3665 -36.8141,-8.6278 -22.2479,-10.178 -40.6396,-28.8484 -49.8171,-53.5759 -9.199,-24.7429 -7.5242,-50.8698 2.6384,-73.0267 1.0744,-2.3458 2.2243,-4.6302 3.5019,-6.8853 -1.1422,-0.5712 -2.2551,-1.173 -3.3819,-1.7733 -21.5119,-12.0267 -38.4675,-32.0793 -45.6607,-57.3488 l -0.0523,0.014 c -1.0298,-3.5465 -1.7748,-7.1239 -2.2474,-10.672 -3.6159,-21.783 0.6003,-43.5935 10.8907,-62.0544 11.9961,-21.5413 32.0639,-38.483 57.3642,-45.6977 64.2326,-18.4302 126.5795,-29.0731 186.4683,-33.9435 31.0801,-2.526 61.3847,-3.4573 90.878,-3.1571 10.1548,-74.4706 33.2154,-138.5523 51.4562,-189.2266 1.9164,-5.3968 3.7513,-10.4627 10.0717,-29.0284 24.4197,-71.689 11.725,-153.947 -1.0067,-236.3542 -6.0724,-39.445 -12.176,-78.9054 -15.1453,-122.3325 -1.3531,-19.8141 -2.5027,-43.1286 -3.3526,-70.3375 -0.7065,-22.4879 -1.0667,-46.6597 -0.9775,-72.5603 0.1509,-60.6414 11.8466,-106.1897 31.4559,-139.0356 23.8271,-39.9406 57.5058,-61.9636 97.0571,-69.614 78.2126,-15.153 156.1328,34.0173 210.0841,84.9625 82.1227,77.5078 123.3194,136.7654 221.0967,208.6945 z"
         inkscape:connector-curvature="0"
         style="fill:#ffffff" />
      <g
         id="g4225">
        <path
           id="path4227"
           d="m 575.3918,794.7832 c -30.1706,88.5107 -100.876,243.3442 -28.2694,411.4653 105.152,243.4951 318.2134,318.2058 462.1255,321.0027 143.9199,2.78 215.8508,-71.9753 273.9813,-102.4014 58.1139,-30.4246 118.9954,13.86 182.6429,55.3799 63.6615,41.4893 218.6152,55.3185 365.3014,-88.5568 146.6566,-143.9045 149.4227,-395.7274 124.5289,-514.7227 -14.1908,-56.2065 -33.463,-87.624 -42.1511,-124.8 -15.5732,-66.6077 31.2974,-177.9218 48.3146,-251.1147 38.6923,-166.9203 116.5754,-485.7111 -182.3428,-261.5036 -70.6223,58.0691 -147.408,133.6834 -229.335,197.5404 -103.3328,45.3221 -492.0315,35.7167 -566.6899,1.0221 C 903.1952,379.6635 830.7842,316.0621 790.6404,262.6062 705.1052,157.1384 560.0802,96.1384 559.5691,291.5592 c -0.1355,48.0574 1.4515,92.088 4.1715,131.6238 8.5172,124.4676 53.1851,249.5663 11.6512,371.6002 z"
           inkscape:connector-curvature="0"
           style="clip-rule:evenodd;fill:#a25742;fill-rule:evenodd" />
        <g
           id="g4229">
          <path
             id="path4231"
             d="m 1170.0203,925.8959 c -44.4061,-9.3513 -71.7351,-56.2512 -121.4474,-65.9027 -74.2595,-14.4757 -102.9941,70.6977 -62.4067,111.5404 49.749,50.1032 149.3088,5.2906 183.8541,-45.6377 z"
             inkscape:connector-curvature="0"
             style="clip-rule:evenodd;fill:#231f20;fill-rule:evenodd" />
          <path
             id="path4233"
             d="m 1453.7716,904.4286 c 44.3754,-9.3498 71.7183,-56.2805 121.3859,-65.9012 74.275,-14.4619 103.0172,70.7115 62.4301,111.5542 -49.7585,50.0587 -149.3322,5.2476 -183.816,-45.653 z"
             inkscape:connector-curvature="0"
             style="clip-rule:evenodd;fill:#231f20;fill-rule:evenodd" />
          <path
             id="path4235"
             d="m 1245.0758,1193.4121 c 25.976,0.962 63.7831,9.4391 73.8395,12.4608 10.3273,3.1417 25.4357,4.7965 39.7451,3.3834 37.2052,-3.6235 50.1339,-19.1215 81.5807,-14.7928 34.2144,3.9083 32.5303,32.6658 6.9008,37.2806 -46.4797,8.3278 -84.2422,86.722 -108.3987,87.4132 -42.5112,-4.4795 -36.1077,-67.2096 -87.0975,-81.2205 -10.2826,-3.9684 -18.0992,-9.1698 -22.9697,-13.5891 -21.8875,-19.797 -10.101,-31.8976 16.3998,-30.9356 z"
             inkscape:connector-curvature="0"
             style="clip-rule:evenodd;fill:#231f20;fill-rule:evenodd" />
          <path
             id="path4237"
             d="m 1582.6278,1147.2927 c -9.3945,1.2314 -15.9335,9.8608 -14.7006,19.2106 1.2469,9.3361 9.8904,15.9043 19.2107,14.6421 31.7794,-4.2701 71.1934,-15.755 117.7638,-29.2532 140.4626,-40.7981 348.3749,-101.1377 588.0372,-32.335 9.0789,2.5707 18.5796,-2.6907 21.1348,-11.7695 2.6013,-9.1097 -2.6907,-18.5811 -11.7849,-21.1656 -248.8906,-71.4489 -462.546,-9.4114 -606.8877,32.4396 -45.1866,13.138 -83.4293,24.2319 -112.7733,28.231 z"
             inkscape:connector-curvature="0"
             style="fill:#231f20" />
          <path
             id="path4239"
             d="m 1559.1178,1217.975 c -9.5005,0 -17.1372,7.6812 -17.1372,17.1357 0,9.4559 7.6367,17.1372 17.1372,17.1372 237.1208,0 431.6996,-105.437 694.0746,-7.0348 8.8093,3.2772 18.6702,-1.2329 21.9336,-10.0409 3.2463,-8.8541 -1.2039,-18.7012 -10.0579,-21.9938 -271.8155,-101.9334 -462.3951,4.7966 -705.9503,4.7966 z"
             inkscape:connector-curvature="0"
             style="fill:#231f20" />
          <path
             id="path4241"
             d="m 1558.0049,1299.5695 c -9.3652,-1.3514 -18.0531,5.1276 -19.4061,14.4619 -1.3531,9.3345 5.1259,18.0393 14.4757,19.3923 22.8652,3.4111 61.6926,4.1331 111.2694,4.9597 136.9453,2.3458 358.5082,6.1633 542.775,75.2524 8.8542,3.2926 18.7151,-1.2021 21.9614,-10.0409 3.2773,-8.7942 -1.2021,-18.6704 -10.0564,-21.9476 -189.6775,-71.1333 -414.9086,-75.0123 -554.1382,-77.4014 -47.9527,-0.8127 -85.4736,-1.4438 -106.8808,-4.6764 z"
             inkscape:connector-curvature="0"
             style="fill:#231f20" />
          <path
             id="path4243"
             d="m 916.5737,1181.1454 c 9.3496,1.2622 17.9484,-5.306 19.1967,-14.6421 1.2545,-9.3497 -5.3137,-17.9791 -14.6497,-19.2106 -29.3501,-3.9991 -67.6083,-15.093 -112.8103,-28.2311 -144.3401,-41.851 -357.974,-103.8884 -606.9014,-32.4396 -9.0881,2.5846 -14.371,12.0559 -11.7942,21.1656 2.6245,9.0789 12.0636,14.3402 21.1656,11.7695 239.6699,-68.8027 447.5746,-8.4631 588.0372,32.335 46.5935,13.4983 86.0154,24.9831 117.7561,29.2533 z"
             inkscape:connector-curvature="0"
             style="fill:#231f20" />
          <path
             id="path4245"
             d="m 944.6014,1252.2479 c 9.4714,0 17.1603,-7.6813 17.1603,-17.1372 0,-9.4546 -7.6889,-17.1357 -17.1603,-17.1357 -124.5582,0 -204.9061,-17.348 -324.9696,-32.4103 -121.3643,-15.2423 -255.5126,-19.4369 -380.9728,27.6138 -8.8697,3.2926 -13.3645,13.1396 -10.0719,21.9938 3.2911,8.808 13.1381,13.3181 21.9691,10.0409 115.4795,-43.3379 240.2626,-40.7826 354.8015,-27.0889 124.4983,14.8822 209.8982,34.1236 339.2437,34.1236 z"
             inkscape:connector-curvature="0"
             style="fill:#231f20" />
          <path
             id="path4247"
             d="m 950.6678,1333.4237 c 9.3344,-1.353 15.8134,-10.0579 14.4603,-19.3923 -1.3684,-9.3344 -10.0794,-15.8134 -19.4293,-14.4619 -21.4132,3.2327 -58.9342,3.8638 -106.8654,4.6765 -139.245,2.389 -364.4669,6.2681 -554.1383,77.4014 -8.8387,3.2772 -13.3565,13.1534 -10.0563,21.9476 3.291,8.8387 13.115,13.3335 21.9691,10.0409 184.253,-69.0891 405.7914,-72.9066 542.752,-75.2524 49.5844,-0.8267 88.4275,-1.5487 111.3079,-4.9598 z"
             inkscape:connector-curvature="0"
             style="fill:#231f20" />
        </g>
      </g>
    </g>
    <text
       xml:space="preserve"
       style="font-style:normal;font-weight:normal;font-size:17.5px;line-height:125%;font-family:sans-serif;letter-spacing:0px;word-spacing:0px;fill:#000000;fill-opacity:1;stroke:none;stroke-width:1px;stroke-linecap:butt;stroke-linejoin:miter;stroke-opacity:1"
       x="57.081623"
       y="1006.5418"
       id="text4330"
       sodipodi:linespacing="125%"><tspan
         sodipodi:role="line"
         id="tspan4332"
         x="57.081623"
         y="1006.5418"
         style="font-size:12.5px;fill:#ff0000">User name</tspan></text>
    <text
       xml:space="preserve"
       style="font-style:normal;font-weight:normal;font-size:17.5px;line-height:125%;font-family:sans-serif;letter-spacing:0px;word-spacing:0px;fill:#000000;fill-opacity:1;stroke:none;stroke-width:1px;stroke-linecap:butt;stroke-linejoin:miter;stroke-opacity:1"
       x="133.92523"
       y="1007.3576"
       id="text4330-6"
       sodipodi:linespacing="125%"><tspan
         sodipodi:role="line"
         id="tspan4332-5"
         x="133.92523"
         y="1007.3576"
         style="font-size:12.5px;fill:#ff0000">Timestamp (days ago)</tspan></text>
    <text
       xml:space="preserve"
       style="font-style:normal;font-weight:normal;font-size:17.5px;line-height:125%;font-family:sans-serif;letter-spacing:0px;word-spacing:0px;fill:#000000;fill-opacity:1;stroke:none;stroke-width:1px;stroke-linecap:butt;stroke-linejoin:miter;stroke-opacity:1"
       x="24.844772"
       y="1018.0252"
       id="text4330-7"
       sodipodi:linespacing="125%"><tspan
         sodipodi:role="line"
         id="tspan4332-50"
         x="24.844772"
         y="1018.0252"
         style="font-size:12.5px;fill:#ff0000">User image</tspan></text>
    <text
       xml:space="preserve"
       style="font-style:normal;font-weight:normal;font-size:17.5px;line-height:125%;font-family:sans-serif;letter-spacing:0px;word-spacing:0px;fill:#000000;fill-opacity:1;stroke:none;stroke-width:1px;stroke-linecap:butt;stroke-linejoin:miter;stroke-opacity:1"
       x="191.1942"
       y="903.33136"
       id="text4330-6-5"
       sodipodi:linespacing="125%"><tspan
         sodipodi:role="line"
         id="tspan4332-5-8"
         x="191.1942"
         y="903.33136"
         style="font-size:12.5px;fill:#ff0000">Comment text</tspan></text>
    <path
       style="display:inline;fill:none;fill-rule:evenodd;stroke:#000000;stroke-width:1px;stroke-linecap:butt;stroke-linejoin:miter;stroke-opacity:1;marker-end:url(#Arrow2Lend)"
       d="M 29.344931,1009.4055 29.56544,987.68781"
       id="path4660"
       inkscape:connector-type="polyline"
       inkscape:connector-curvature="0" />
    <path
       style="display:inline;fill:none;fill-rule:evenodd;stroke:#000000;stroke-width:1px;stroke-linecap:butt;stroke-linejoin:miter;stroke-opacity:1;marker-end:url(#Arrow2Lend-0)"
       d="m 61.695067,998.79887 0,-13.78858"
       id="path4660-7"
       inkscape:connector-type="polyline"
       inkscape:connector-curvature="0" />
    <path
       style="display:inline;fill:none;fill-rule:evenodd;stroke:#000000;stroke-width:1px;stroke-linecap:butt;stroke-linejoin:miter;stroke-opacity:1;marker-start:url(#Arrow1Lstart)"
       d="m 214.40564,929.05441 0.22051,-21.71769"
       id="path4660-4"
       inkscape:connector-type="polyline"
       inkscape:connector-curvature="0" />
    <path
       style="display:inline;fill:none;fill-rule:evenodd;stroke:#000000;stroke-width:1px;stroke-linecap:butt;stroke-linejoin:miter;stroke-opacity:1;marker-end:url(#Arrow2Lend-0-1)"
       d="m 141.01762,997.59234 0,-13.78858"
       id="path4660-7-9"
       inkscape:connector-type="polyline"
       inkscape:connector-curvature="0" />
  </g>
</svg>
