<?xml version="1.0" encoding="utf-8"?>
<!-- Generator: Adobe Illustrator 18.0.0, SVG Export Plug-In . SVG Version: 6.00 Build 0)  -->
<!DOCTYPE svg PUBLIC "-//W3C//DTD SVG 1.1//EN" "http://www.w3.org/Graphics/SVG/1.1/DTD/svg11.dtd">
<svg version="1.1" id="Layer_1" xmlns="http://www.w3.org/2000/svg" xmlns:xlink="http://www.w3.org/1999/xlink" x="0px" y="0px"
	 viewBox="0 0 1402 821" enable-background="new 0 0 1402 821" xml:space="preserve">
<rect x="99.5" y="98" fill="#FFFFFF" stroke="#000000" stroke-miterlimit="10" width="1205" height="641"/>
<line fill="none" stroke="#000000" stroke-miterlimit="10" x1="99.5" y1="142" x2="1304.5" y2="142"/>
<line fill="none" stroke="#000000" stroke-miterlimit="10" x1="246" y1="142" x2="246" y2="739"/>
<text transform="matrix(1 0 0 1 274.3956 192)" font-family="'MyriadPro-Regular'" font-size="25">API Name</text>
<rect x="274.4" y="210" fill="#A7A9AC" width="92.5" height="38.8"/>
<rect x="381.9" y="210" fill="#A7A9AC" width="92.5" height="38.8"/>
<rect x="495.7" y="210" fill="#A7A9AC" width="92.5" height="38.8"/>
<rect x="607" y="210" fill="#A7A9AC" width="92.5" height="38.8"/>
<rect x="720.9" y="210" fill="#A7A9AC" width="92.5" height="38.8"/>
<rect x="834.9" y="210" fill="#A7A9AC" width="92.5" height="38.8"/>
<rect x="391.2" y="225" fill="none" width="74" height="31"/>
<text transform="matrix(1 0 0 1 391.2169 232.8101)" font-family="'MyriadPro-Regular'" font-size="11">Documentation</text>
<rect x="276.4" y="276" fill="#FFFFFF" stroke="#000000" stroke-miterlimit="10" width="998.6" height="427"/>
<text transform="matrix(1 0 0 1 624 506)" fill="#BCBEC0" font-family="'MyriadPro-Regular'" font-size="83">RedDoc</text>
<g>
	<g>
		<path fill="#ED1C24" d="M75.8,345.8c14.6-4.3,29.1-8.6,43.7-13c3.1-0.9,1.8-5.7-1.3-4.8c-14.6,4.3-29.1,8.6-43.7,13
			C71.4,341.9,72.7,346.7,75.8,345.8L75.8,345.8z"/>
	</g>
</g>
<text transform="matrix(1 0 0 1 5 364)"><tspan x="0" y="0" fill="#ED1C24" font-family="'MyriadPro-Bold'" font-size="14">can be hidden on this view </tspan><tspan x="0" y="16.8" fill="#ED1C24" font-family="'MyriadPro-Bold'" font-size="14">for more space</tspan></text>
<text transform="matrix(1 0 0 1 1018 66)" font-family="'MyriadPro-Bold'" font-size="16">View with uploaded documentation file</text>
</svg>
