<?xml version="1.0" encoding="utf-8"?>
<!-- Generator: Adobe Illustrator 18.0.0, SVG Export Plug-In . SVG Version: 6.00 Build 0)  -->
<!DOCTYPE svg PUBLIC "-//W3C//DTD SVG 1.1//EN" "http://www.w3.org/Graphics/SVG/1.1/DTD/svg11.dtd">
<svg version="1.1" id="Layer_1" xmlns="http://www.w3.org/2000/svg" xmlns:xlink="http://www.w3.org/1999/xlink" x="0px" y="0px"
	 viewBox="0 0 1280 720" enable-background="new 0 0 1280 720" xml:space="preserve">
<rect x="110.3" y="85.9" fill="#FFFFFF" stroke="#000000" stroke-miterlimit="10" width="1056.8" height="562.1"/>
<line fill="none" stroke="#000000" stroke-miterlimit="10" x1="110.3" y1="124.5" x2="1167.1" y2="124.5"/>
<line fill="none" stroke="#000000" stroke-miterlimit="10" x1="241" y1="124.5" x2="241" y2="648.1"/>
<text transform="matrix(1 0 0 1 265.877 168.3799)" font-family="'MyriadPro-Regular'" font-size="21.9245">API Name</text>
<rect x="265.9" y="184.2" fill="#A7A9AC" width="81.1" height="34"/>
<rect x="360.2" y="184.2" fill="#A7A9AC" width="81.1" height="34"/>
<rect x="460" y="184.2" fill="#A7A9AC" width="81.1" height="34"/>
<rect x="557.6" y="184.2" fill="#A7A9AC" width="81.1" height="34"/>
<rect x="657.5" y="184.2" fill="#A7A9AC" width="81.1" height="34"/>
<rect x="757.4" y="184.2" fill="#A7A9AC" width="81.1" height="34"/>
<rect x="368.3" y="197.3" fill="none" width="64.9" height="27.2"/>
<text transform="matrix(1 0 0 1 368.3267 204.1694)" font-family="'MyriadPro-Regular'" font-size="9.6468">Documentation</text>
<g>
	<g>
		<path fill="#ED1C24" d="M296.2,336c-6.1-11.9-12.2-23.6-18.5-35.5c-1.3-2.5-5.2-0.6-3.9,1.9c6.1,11.9,12.2,23.6,18.5,35.5
			C293.6,340.4,297.5,338.5,296.2,336L296.2,336z"/>
	</g>
</g>
<text transform="matrix(1 0 0 1 289.2501 355.8871)" fill="#ED1C24" font-family="'MyriadPro-Bold'" font-size="12.2777">icon</text>
<g>
	<g>
		<path fill="#ED1C24" d="M504.2,337.5c-6.1-11.9-12.2-23.6-18.5-35.5c-1.3-2.5-5.2-0.6-3.9,1.9c6.1,11.9,12.2,23.6,18.5,35.5
			C501.6,341.9,505.5,340,504.2,337.5L504.2,337.5z"/>
	</g>
</g>
<text transform="matrix(1 0 0 1 481.5592 360)" fill="#ED1C24" font-family="'MyriadPro-Bold'" font-size="12.2777">edit/remove button</text>
<text transform="matrix(1 0 0 1 918.003 57.8804)" font-family="'MyriadPro-Bold'" font-size="14.0317">View with link to documentation file</text>
<text transform="matrix(1 0 0 1 265.8808 260)" font-family="'MyriadPro-Regular'" font-size="17">Documentation</text>
<rect x="265.9" y="280" fill="#F2F2F2" width="15.5" height="15.5"/>
<text transform="matrix(1 0 0 1 289.25 292.7043)" font-family="'MyriadPro-Regular'" font-size="13">Api_documentation_file.json</text>
<rect x="460" y="280" fill="#FFFFFF" stroke="#000000" stroke-miterlimit="10" width="33" height="15.5"/>
<text transform="matrix(1 0 0 1 466.3335 292.0792)" font-family="'MyriadPro-Regular'" font-size="13">Edit</text>
</svg>
